<svg width="101" height="101" viewBox="0 0 101 101" fill="none" xmlns="http://www.w3.org/2000/svg">
<path d="M91.5312 2.36719H9.46875C7.60681 2.34824 5.81339 3.0687 4.48202 4.37048C3.15065 5.67226 2.39008 7.44904 2.36719 9.31094V91.7048C2.39422 93.564 3.15661 95.3367 4.48753 96.6351C5.81845 97.9335 7.60951 98.6518 9.46875 98.6328H91.5312C93.3933 98.6476 95.1855 97.9247 96.5162 96.6221C97.8469 95.3195 98.6078 93.5431 98.6328 91.6812V9.28726C98.5996 7.43083 97.835 5.66252 96.5052 4.36672C95.1754 3.07091 93.3879 2.35233 91.5312 2.36719Z" fill="#0076B2"/>
<path d="M16.6177 38.451H30.9076V84.4297H16.6177V38.451ZM23.7666 15.5682C25.4056 15.5682 27.0078 16.0543 28.3704 16.965C29.7331 17.8758 30.795 19.1702 31.4218 20.6846C32.0487 22.1989 32.2123 23.8652 31.892 25.4726C31.5717 27.08 30.7818 28.5562 29.6223 29.7146C28.4628 30.873 26.9858 31.6615 25.3781 31.9803C23.7704 32.299 22.1043 32.1338 20.5905 31.5056C19.0768 30.8773 17.7833 29.8141 16.8739 28.4506C15.9645 27.0871 15.4799 25.4844 15.4814 23.8454C15.4835 21.6494 16.3574 19.5441 17.9109 17.9921C19.4644 16.44 21.5706 15.5682 23.7666 15.5682ZM39.8714 38.451H53.5695V44.7635H53.7589C55.6684 41.1496 60.3239 37.3384 67.2755 37.3384C81.7469 37.3068 84.4297 46.8308 84.4297 59.1797V84.4297H70.1398V62.0597C70.1398 56.7336 70.0451 49.8766 62.7147 49.8766C55.3843 49.8766 54.1376 55.6841 54.1376 61.7126V84.4297H39.8714V38.451Z" fill="white"/>
</svg>
