<svg width="73" height="70" viewBox="0 0 73 70" fill="none" xmlns="http://www.w3.org/2000/svg">
<path d="M62.3618 10.1852C58.9987 6.94393 54.9928 4.37403 50.5778 2.62538C46.1628 0.876726 41.427 -0.0156804 36.6467 0.000208493C16.6176 0.000208493 0.293468 15.5752 0.293468 34.6851C0.293468 40.8101 1.9809 46.7601 5.13568 52.0101L0 70L19.2588 65.17C24.5779 67.935 30.5573 69.405 36.6467 69.405C56.6759 69.405 73 53.8301 73 34.7201C73 25.4451 69.2216 16.7302 62.3618 10.1852ZM36.6467 63.525C31.2176 63.525 25.8985 62.125 21.2397 59.5L20.1392 58.87L8.69397 61.74L11.7387 51.1001L11.005 50.0151C7.98872 45.4195 6.3871 40.1074 6.38291 34.6851C6.38291 18.7952 19.9558 5.84519 36.61 5.84519C44.6804 5.84519 52.2739 8.85518 57.9598 14.3152C60.7752 16.989 63.0063 20.1695 64.5239 23.6721C66.0415 27.1748 66.8153 30.93 66.8005 34.7201C66.8739 50.6101 53.301 63.525 36.6467 63.525ZM53.2276 41.9651C52.3105 41.5451 47.8352 39.4451 47.0281 39.1301C46.1844 38.8501 45.5975 38.7101 44.9739 39.5501C44.3503 40.4251 42.6261 42.3851 42.1126 42.9451C41.599 43.5401 41.0487 43.6101 40.1317 43.1551C39.2146 42.7351 36.2799 41.7901 32.8317 38.8501C30.1171 36.5401 28.3196 33.7051 27.7693 32.8301C27.2558 31.9551 27.696 31.5001 28.1729 31.0451C28.5764 30.6601 29.0899 30.0301 29.5301 29.5401C29.9704 29.0501 30.1538 28.6651 30.4472 28.1051C30.7407 27.5101 30.594 27.0201 30.3739 26.6001C30.1538 26.1801 28.3196 21.9101 27.5859 20.1602C26.8523 18.4802 26.0819 18.6902 25.5317 18.6552H23.7709C23.1472 18.6552 22.1935 18.8652 21.3497 19.7402C20.5427 20.6151 18.195 22.7151 18.195 26.9851C18.195 31.2551 21.4598 35.3851 21.9 35.9451C22.3402 36.5401 28.3196 45.2901 37.4171 49.0351C39.5814 49.9451 41.2688 50.4701 42.5894 50.8551C44.7538 51.5201 46.7347 51.4151 48.3121 51.2051C50.0729 50.9601 53.7045 49.1051 54.4382 47.0751C55.2085 45.0451 55.2085 43.3301 54.9518 42.9451C54.695 42.5601 54.1447 42.3851 53.2276 41.9651Z" fill="white"/>
</svg>
