<svg width="75" height="75" viewBox="0 0 75 75" fill="none" xmlns="http://www.w3.org/2000/svg">
<path d="M48.4909 29.1667L44.5066 28.4833C44.4104 29.08 44.4413 29.6911 44.5972 30.2741C44.7531 30.8572 45.0302 31.3983 45.4094 31.8598C45.7885 32.3213 46.2606 32.6922 46.7927 32.9466C47.3248 33.2011 47.9043 33.3331 48.4909 33.3333V29.1667ZM4.04091 29.1667V25C2.96919 25 1.94137 25.439 1.18355 26.2204C0.425737 27.0018 0 28.0616 0 29.1667H4.04091ZM12.1227 75H58.0274V66.6667H12.1227V75ZM62.8765 25H48.4909V33.3333H62.8765V25ZM52.4793 29.85L55.7322 9.70417L47.7635 8.33333L44.5066 28.4833L52.4793 29.85ZM47.7635 0H46.8988V8.33333H47.7635V0ZM33.4466 7.42083L23.2877 23.1458L30.0118 27.7708L40.1787 12.0458L33.4466 7.42083ZM19.9217 25H4.04091V33.3333H19.9217V25ZM0 29.1667V62.5H8.08181V29.1667H0ZM69.9158 64.95L74.7649 39.95L66.8447 38.3167L61.9956 63.3167L69.9158 64.95ZM23.2877 23.1458C22.9186 23.7163 22.4146 24.184 21.8281 24.5075C21.2416 24.8309 20.5868 25.0001 19.9217 25V33.3333C21.9173 33.3332 23.8821 32.825 25.6416 31.8539C27.4011 30.8829 28.9008 29.4789 30.0078 27.7667L23.2877 23.1458ZM55.7322 9.70417C55.9252 8.51057 55.8639 7.28795 55.5524 6.12128C55.2408 4.95462 54.6867 3.8719 53.9283 2.9484C53.17 2.0249 52.2257 1.28277 51.1611 0.773608C50.0965 0.264443 48.9371 0.000456285 47.7635 0V8.33333L55.7322 9.70417ZM62.8765 33.3333C63.4745 33.3331 64.065 33.4697 64.6056 33.7333C65.1462 33.9968 65.6232 34.3808 66.0025 34.8575C66.3817 35.3343 66.6536 35.8918 66.7985 36.49C66.9435 37.0882 66.9619 37.7121 66.8447 38.3167L74.7649 39.95C75.1163 38.1369 75.0733 36.2659 74.6389 34.472C74.2046 32.6781 73.3896 31.0059 72.2529 29.5759C71.1161 28.1459 69.6859 26.9937 68.0652 26.2025C66.4445 25.4112 64.6737 25.0005 62.8806 25L62.8765 33.3333ZM58.0274 75C60.8303 75.0002 63.5466 73.9989 65.7141 72.1666C67.8816 70.3342 69.3664 67.784 69.9158 64.95L61.9956 63.3167C61.8123 64.2623 61.3166 65.1131 60.593 65.7239C59.8693 66.3348 58.9626 66.668 58.0274 66.6667V75ZM46.8988 0C44.238 4.68872e-05 41.6184 0.677393 39.2724 1.97192C36.9264 3.26645 34.9227 5.13813 33.4466 7.42083L40.1787 12.0458C40.9165 10.9041 41.9123 9.96785 43.0853 9.32021C44.2583 8.67258 45.5682 8.33359 46.8988 8.33333V0ZM12.1227 66.6667C11.051 66.6667 10.0232 66.2277 9.26537 65.4463C8.50755 64.6649 8.08181 63.6051 8.08181 62.5H0C0 65.8152 1.27721 68.9946 3.55066 71.3388C5.82411 73.683 8.90758 75 12.1227 75V66.6667Z" fill="#952B95"/>
<path d="M20.2051 29.167V70.8337" stroke="#952B95" stroke-width="2"/>
</svg>
