<svg width="179" height="168" viewBox="0 0 179 168" fill="none" xmlns="http://www.w3.org/2000/svg">
<path d="M76.1309 21.1969L61.8389 37.9641C57.5597 39.3422 53.5881 41.8687 50.2319 45.3469L42.7922 53.1234C39.9394 56.1094 36.2195 57.75 32.3878 57.75H26.85V99.75C32.5556 99.9469 37.9816 102.67 42.037 107.428L51.9939 119.109L53.9517 121.406L61.5033 130.266C63.2373 132.3 66.0902 132.3 67.8242 130.266C68.2997 129.708 68.6633 129.052 68.8591 128.363C69.6422 125.836 71.4602 123.933 73.6977 123.342C75.9352 122.752 78.2845 123.539 79.9067 125.475L82.9273 128.953C86.1717 132.759 91.4298 132.759 94.6462 128.953C96.1566 127.181 96.9677 124.917 97.0516 122.588C97.1634 119.7 98.6178 117.141 100.855 115.894C103.093 114.647 105.694 114.909 107.68 116.583C110.309 118.781 113.973 118.486 116.322 115.73C118.951 112.645 118.951 107.658 116.322 104.606L95.1217 79.7344L85.1089 90.5625C77.4734 98.8313 65.7545 98.9625 57.9792 90.8578C49.1131 81.6047 48.9173 65.4609 57.5317 55.9125L77.1378 34.1906C84.8012 25.725 94.9259 21 105.47 21C115.567 21 125.328 25.3641 132.852 33.2062L141.27 42H174.525C176.986 42 179 44.3625 179 47.25V115.5C179 121.308 175 126 170.05 126H161.1C157.8 126 154.891 123.9 153.353 120.75H129.607C128.656 122.948 127.398 125.048 125.831 126.886C121.049 132.497 114.42 134.695 108.211 133.481C107.204 135.877 105.834 138.108 104.128 140.109C96.4922 149.067 84.5495 149.953 76.047 142.767C69.0269 149.592 58.5666 149.166 51.9939 141.422L44.4703 132.562L42.5125 130.266L32.5556 118.584C31.0173 116.78 29.0036 115.73 26.85 115.533C26.85 121.308 22.8225 126 17.9 126H8.95C3.99953 126 0 121.308 0 115.5V47.25C0 44.3625 2.01375 42 4.475 42H32.3878C32.9472 42 33.4786 41.7703 33.8702 41.3438L41.2819 33.6C49.0852 25.4953 59.1259 21 69.5583 21H72.4391C73.6697 21 74.9283 21.0656 76.1309 21.1969ZM152.15 105V57.75H138.725C137.075 57.75 135.481 57.0281 134.278 55.7484L123.958 44.9859C118.867 39.6703 112.295 36.75 105.47 36.75C98.3661 36.75 91.5417 39.9328 86.3675 45.6422L66.7614 67.3641C63.8806 70.5797 63.9366 75.9938 66.9012 79.0781C69.5023 81.8016 73.4459 81.7359 75.9911 78.9797L96.1006 57.1922C98.8136 54.2391 103.065 54.4359 105.582 57.6516C108.099 60.8672 107.931 65.8219 105.19 68.775L104.967 69.0375L125.775 93.45C128.572 96.7312 130.39 100.767 131.201 104.967H152.15V105ZM17.9 110.25C17.9 108.858 17.4285 107.522 16.5893 106.538C15.7501 105.553 14.6118 105 13.425 105C12.2382 105 11.0999 105.553 10.2607 106.538C9.42147 107.522 8.95 108.858 8.95 110.25C8.95 111.642 9.42147 112.978 10.2607 113.962C11.0999 114.947 12.2382 115.5 13.425 115.5C14.6118 115.5 15.7501 114.947 16.5893 113.962C17.4285 112.978 17.9 111.642 17.9 110.25ZM165.575 115.5C166.762 115.5 167.9 114.947 168.739 113.962C169.579 112.978 170.05 111.642 170.05 110.25C170.05 108.858 169.579 107.522 168.739 106.538C167.9 105.553 166.762 105 165.575 105C164.388 105 163.25 105.553 162.411 106.538C161.571 107.522 161.1 108.858 161.1 110.25C161.1 111.642 161.571 112.978 162.411 113.962C163.25 114.947 164.388 115.5 165.575 115.5Z" fill="#952B95"/>
</svg>
