<svg width="40" height="40" viewBox="0 0 40 40" fill="none" xmlns="http://www.w3.org/2000/svg">
<path d="M36.8889 40L22.8889 26C21.7778 26.8889 20.5 27.5926 19.0556 28.1111C17.6111 28.6296 16.0741 28.8889 14.4444 28.8889C10.4074 28.8889 6.99111 27.4904 4.19556 24.6933C1.4 21.8963 0.00148148 18.48 0 14.4444C0 10.4074 1.39852 6.99111 4.19556 4.19556C6.99259 1.4 10.4089 0.00148148 14.4444 0C18.4815 0 21.8985 1.39852 24.6956 4.19556C27.4926 6.99259 28.8904 10.4089 28.8889 14.4444C28.8889 16.0741 28.6296 17.6111 28.1111 19.0556C27.5926 20.5 26.8889 21.7778 26 22.8889L40 36.8889L36.8889 40ZM14.4444 24.4444C17.2222 24.4444 19.5837 23.4726 21.5289 21.5289C23.4741 19.5852 24.4459 17.2237 24.4444 14.4444C24.4444 11.6667 23.4726 9.30593 21.5289 7.36222C19.5852 5.41852 17.2237 4.44593 14.4444 4.44444C11.6667 4.44444 9.30593 5.41704 7.36222 7.36222C5.41852 9.30741 4.44593 11.6681 4.44444 14.4444C4.44444 17.2222 5.41704 19.5837 7.36222 21.5289C9.30741 23.4741 11.6681 24.4459 14.4444 24.4444Z" fill="#F2F2F2"/>
</svg>
