<svg width="117" height="90" viewBox="0 0 117 90" fill="none" xmlns="http://www.w3.org/2000/svg">
<g clip-path="url(#clip0_276_30)">
<path d="M26.591 89.557V43.4332L12.5716 30.3468L0 23.0848V81.4174C0 85.9211 3.57627 89.557 7.97748 89.557H26.591Z" fill="#4285F4"/>
<path d="M90.4092 89.557H109.023C113.437 89.557 117 85.9075 117 81.4173V23.0852L102.761 31.403L90.4092 43.4331V89.557Z" fill="#34A853"/>
<path d="M26.5912 43.4331L24.6836 25.4112L26.5912 8.16248L58.5003 32.5809L90.4093 8.16248L92.5431 24.48L90.4093 43.4331L58.5003 67.8516L26.5912 43.4331Z" fill="#EA4335"/>
<path d="M90.4092 8.16247V43.4331L117 23.0847V12.2321C117 2.16651 105.739 -3.57158 97.8551 2.46495L90.4092 8.16247Z" fill="#FBBC04"/>
<path d="M0 23.0848L12.2297 32.4439L26.591 43.4332V8.16256L19.145 2.46504C11.2475 -3.57195 0 2.1666 0 12.2317V23.0844V23.0848Z" fill="#C5221F"/>
</g>
<defs>
<clipPath id="clip0_276_30">
<rect width="117" height="90" fill="white"/>
</clipPath>
</defs>
</svg>
