<svg width="164" height="162" viewBox="0 0 164 162" fill="none" xmlns="http://www.w3.org/2000/svg">
<g filter="url(#filter0_d_418_38)">
<path d="M91.75 9.625C91.75 7.07229 90.7228 4.62413 88.8943 2.8191C87.0658 1.01406 84.5859 0 82 0C79.4141 0 76.9342 1.01406 75.1057 2.8191C73.2772 4.62413 72.25 7.07229 72.25 9.625V19.25C72.25 21.8027 73.2772 24.2509 75.1057 26.0559C76.9342 27.8609 79.4141 28.875 82 28.875C84.5859 28.875 87.0658 27.8609 88.8943 26.0559C90.7228 24.2509 91.75 21.8027 91.75 19.25V9.625ZM137.156 36.1611C138.932 34.3458 139.915 31.9145 139.892 29.3909C139.87 26.8672 138.845 24.4532 137.037 22.6686C135.229 20.8841 132.784 19.8718 130.227 19.8499C127.671 19.828 125.208 20.7981 123.369 22.5514L116.476 29.3563C114.7 31.1715 113.717 33.6028 113.739 36.1265C113.762 38.6501 114.787 41.0642 116.595 42.8488C118.402 44.6333 120.848 45.6456 123.404 45.6675C125.961 45.6894 128.424 44.7193 130.262 42.966L137.156 36.1611ZM160 77C160 79.5527 158.973 82.0009 157.144 83.8059C155.316 85.6109 152.836 86.625 150.25 86.625H140.5C137.914 86.625 135.434 85.6109 133.606 83.8059C131.777 82.0009 130.75 79.5527 130.75 77C130.75 74.4473 131.777 71.9991 133.606 70.1941C135.434 68.3891 137.914 67.375 140.5 67.375H150.25C152.836 67.375 155.316 68.3891 157.144 70.1941C158.973 71.9991 160 74.4473 160 77ZM33.7375 42.966C34.6369 43.8853 35.7128 44.6185 36.9023 45.123C38.0918 45.6274 39.3712 45.8929 40.6658 45.904C41.9604 45.9151 43.2443 45.6716 44.4426 45.1877C45.6408 44.7037 46.7294 43.989 47.6449 43.0853C48.5603 42.1816 49.2843 41.1069 49.7745 39.9241C50.2648 38.7412 50.5114 37.4738 50.5002 36.1958C50.4889 34.9178 50.22 33.6548 49.709 32.4805C49.198 31.3062 48.4552 30.2441 47.524 29.3563L40.6307 22.5514C38.7919 20.7981 36.329 19.828 33.7726 19.8499C31.2162 19.8718 28.7707 20.8841 26.963 22.6686C25.1553 24.4532 24.1299 26.8672 24.1077 29.3909C24.0855 31.9145 25.0682 34.3458 26.8442 36.1611L33.7375 42.966ZM33.25 77C33.25 79.5527 32.2228 82.0009 30.3943 83.8059C28.5658 85.6109 26.0859 86.625 23.5 86.625H13.75C11.1641 86.625 8.68419 85.6109 6.85571 83.8059C5.02723 82.0009 4 79.5527 4 77C4 74.4473 5.02723 71.9991 6.85571 70.1941C8.68419 68.3891 11.1641 67.375 13.75 67.375H23.5C26.0859 67.375 28.5658 68.3891 30.3943 70.1941C32.2228 71.9991 33.25 74.4473 33.25 77ZM62.5 134.75V125.125H101.5V134.75C101.5 139.855 99.4455 144.752 95.7886 148.362C92.1316 151.972 87.1717 154 82 154C76.8283 154 71.8684 151.972 68.2114 148.362C64.5545 144.752 62.5 139.855 62.5 134.75ZM101.5 115.5C101.646 112.227 103.528 109.282 106.151 107.232C112.514 102.278 117.156 95.4893 119.432 87.8104C121.707 80.1315 121.502 71.9436 118.846 64.3848C116.19 56.826 111.215 50.2718 104.611 45.6332C98.0078 40.9947 90.1046 38.5022 82 38.5022C73.8954 38.5022 65.9922 40.9947 59.3888 45.6332C52.7854 50.2718 47.8099 56.826 45.1538 64.3848C42.4978 71.9436 42.2931 80.1315 44.5683 87.8104C46.8436 95.4893 51.4856 102.278 57.8492 107.232C60.4817 109.282 62.3538 112.227 62.4903 115.5H101.51H101.5Z" fill="#952B95"/>
</g>
<defs>
<filter id="filter0_d_418_38" x="0" y="0" width="164" height="162" filterUnits="userSpaceOnUse" color-interpolation-filters="sRGB">
<feFlood flood-opacity="0" result="BackgroundImageFix"/>
<feColorMatrix in="SourceAlpha" type="matrix" values="0 0 0 0 0 0 0 0 0 0 0 0 0 0 0 0 0 0 127 0" result="hardAlpha"/>
<feOffset dy="4"/>
<feGaussianBlur stdDeviation="2"/>
<feComposite in2="hardAlpha" operator="out"/>
<feColorMatrix type="matrix" values="0 0 0 0 0 0 0 0 0 0 0 0 0 0 0 0 0 0 0.25 0"/>
<feBlend mode="normal" in2="BackgroundImageFix" result="effect1_dropShadow_418_38"/>
<feBlend mode="normal" in="SourceGraphic" in2="effect1_dropShadow_418_38" result="shape"/>
</filter>
</defs>
</svg>
