<svg width="226" height="213" viewBox="0 0 226 213" fill="none" xmlns="http://www.w3.org/2000/svg">
<path fill-rule="evenodd" clip-rule="evenodd" d="M0.5 106.5C0.5 47.8181 50.8663 0.25 113 0.25C175.134 0.25 225.5 47.8181 225.5 106.5C225.5 165.182 175.134 212.75 113 212.75C50.8663 212.75 0.5 165.182 0.5 106.5ZM124.25 53.375C124.25 50.5571 123.065 47.8546 120.955 45.862C118.845 43.8694 115.984 42.75 113 42.75C110.016 42.75 107.155 43.8694 105.045 45.862C102.935 47.8546 101.75 50.5571 101.75 53.375V93.3675C101.75 99.2862 103.495 105.088 106.79 110.123C110.084 115.158 114.798 119.227 120.402 121.874L152.971 137.249C154.297 137.924 155.754 138.341 157.254 138.475C158.754 138.609 160.267 138.456 161.703 138.027C163.14 137.598 164.47 136.901 165.616 135.977C166.762 135.053 167.699 133.921 168.373 132.648C169.047 131.376 169.443 129.988 169.538 128.568C169.634 127.148 169.426 125.724 168.927 124.382C168.429 123.039 167.65 121.804 166.637 120.751C165.623 119.698 164.397 118.848 163.029 118.251L130.471 102.866C128.603 101.984 127.031 100.629 125.932 98.9512C124.834 97.2736 124.251 95.3402 124.25 93.3675V53.375Z" fill="#1E90FF"/>
</svg>
