<svg width="91" height="91" viewBox="0 0 91 91" fill="none" xmlns="http://www.w3.org/2000/svg">
<path d="M10.1111 91C7.33056 91 4.9494 90.0091 2.96762 88.0273C0.985841 86.0455 -0.00336179 83.6661 8.58329e-06 80.8889V10.1111C8.58329e-06 7.33056 0.990897 4.9494 2.97267 2.96762C4.95445 0.985841 7.33393 -0.00336179 10.1111 8.58329e-06H80.8889C83.6694 8.58329e-06 86.0506 0.990897 88.0324 2.97267C90.0142 4.95445 91.0034 7.33393 91 10.1111V80.8889C91 83.6694 90.0091 86.0506 88.0273 88.0324C86.0455 90.0142 83.6661 91.0034 80.8889 91H10.1111ZM15.1667 70.7778H75.8333L56.875 45.5L41.7083 65.7222L30.3333 50.5556L15.1667 70.7778Z" fill="#952B95"/>
</svg>
