<svg width="136" height="122" viewBox="0 0 136 122" fill="none" xmlns="http://www.w3.org/2000/svg">
<path d="M45.333 22.875C41.5758 22.875 37.9724 24.2139 35.3157 26.5972C32.6589 28.9805 31.1663 32.2129 31.1663 35.5833C31.1663 38.9538 32.6589 42.1862 35.3157 44.5695C37.9724 46.9528 41.5758 48.2917 45.333 48.2917C49.0902 48.2917 52.6936 46.9528 55.3504 44.5695C58.0071 42.1862 59.4997 38.9538 59.4997 35.5833C59.4997 32.2129 58.0071 28.9805 55.3504 26.5972C52.6936 24.2139 49.0902 22.875 45.333 22.875ZM22.6663 35.5833C22.6663 30.1906 25.0544 25.0187 29.3053 21.2055C33.5561 17.3923 39.3214 15.25 45.333 15.25C51.3446 15.25 57.1099 17.3923 61.3608 21.2055C65.6116 25.0187 67.9997 30.1906 67.9997 35.5833C67.9997 40.9761 65.6116 46.1479 61.3608 49.9612C57.1099 53.7744 51.3446 55.9167 45.333 55.9167C39.3214 55.9167 33.5561 53.7744 29.3053 49.9612C25.0544 46.1479 22.6663 40.9761 22.6663 35.5833ZM96.333 33.0417C94.0787 33.0417 91.9167 33.845 90.3226 35.275C88.7285 36.7049 87.833 38.6444 87.833 40.6667C87.833 42.6889 88.7285 44.6284 90.3226 46.0584C91.9167 47.4883 94.0787 48.2917 96.333 48.2917C98.5873 48.2917 100.749 47.4883 102.343 46.0584C103.937 44.6284 104.833 42.6889 104.833 40.6667C104.833 38.6444 103.937 36.7049 102.343 35.275C100.749 33.845 98.5873 33.0417 96.333 33.0417ZM79.333 40.6667C79.333 36.6221 81.1241 32.7432 84.3122 29.8833C87.5003 27.0234 91.8243 25.4167 96.333 25.4167C100.842 25.4167 105.166 27.0234 108.354 29.8833C111.542 32.7432 113.333 36.6221 113.333 40.6667C113.333 44.7112 111.542 48.5901 108.354 51.45C105.166 54.31 100.842 55.9167 96.333 55.9167C91.8243 55.9167 87.5003 54.31 84.3122 51.45C81.1241 48.5901 79.333 44.7112 79.333 40.6667ZM11.333 77.5208C11.333 74.4874 12.6763 71.5782 15.0674 69.4333C17.4585 67.2883 20.7015 66.0833 24.083 66.0833H66.583C68.3737 66.0833 70.0793 66.4137 71.6263 67.0136C69.6203 69.0367 67.8863 71.2836 66.481 73.7083H24.083C22.9558 73.7083 21.8748 74.11 21.0778 74.825C20.2808 75.54 19.833 76.5097 19.833 77.5208V78.8272L19.8727 79.2339C19.9123 79.6101 20.003 80.1896 20.1843 80.9063C20.5583 82.3347 21.3063 84.241 22.7853 86.1371C25.579 89.7208 31.6083 94.0417 45.333 94.0417C53.34 94.0417 58.7233 92.5675 62.3783 90.6358C62.5313 93.3605 63.0527 95.9987 63.897 98.515C59.1653 100.447 53.0907 101.667 45.333 101.667C29.3077 101.667 20.4563 96.4562 15.821 90.5087C13.3959 87.3861 11.8803 83.7688 11.4123 79.9862C11.3726 79.6381 11.3461 79.2888 11.333 78.9391V77.5259V77.5208ZM99.172 116.927C106.011 116.925 112.659 114.907 118.093 111.181C123.527 107.456 127.444 102.232 129.241 96.3124C131.038 90.3932 130.616 84.1081 128.039 78.4256C125.462 72.7431 120.873 67.9785 114.98 64.8661C109.086 61.7536 102.216 60.4661 95.4261 61.2018C88.6367 61.9376 82.3054 64.6558 77.4078 68.9376C72.5103 73.2193 69.3183 78.8271 68.3237 84.8967C67.3291 90.9662 68.5872 97.1608 71.904 102.526L68.13 113.638C67.979 114.079 67.9647 114.549 68.0886 114.996C68.2125 115.444 68.47 115.853 68.8334 116.18C69.1968 116.506 69.6525 116.738 70.1515 116.85C70.6505 116.962 71.1741 116.95 71.666 116.815L84.059 113.429C88.5357 115.661 93.6923 116.927 99.172 116.927ZM87.8387 86.4268C87.0865 86.4268 86.3651 86.1588 85.8332 85.6817C85.3013 85.2045 85.0025 84.5574 85.0025 83.8826C85.0025 83.2079 85.3013 82.5607 85.8332 82.0836C86.3651 81.6065 87.0865 81.3384 87.8387 81.3384H110.505C111.257 81.3384 111.977 81.6062 112.509 82.0828C113.04 82.5595 113.339 83.206 113.339 83.8801C113.339 84.5542 113.04 85.2007 112.509 85.6773C111.977 86.154 111.257 86.4217 110.505 86.4217H87.8387V86.4268ZM99.172 96.5935H87.8387C87.0872 96.5935 86.3666 96.3257 85.8352 95.8491C85.3039 95.3724 85.0053 94.7259 85.0053 94.0518C85.0053 93.3777 85.3039 92.7313 85.8352 92.2546C86.3666 91.7779 87.0872 91.5102 87.8387 91.5102H99.172C99.9234 91.5102 100.644 91.7779 101.175 92.2546C101.707 92.7313 102.005 93.3777 102.005 94.0518C102.005 94.7259 101.707 95.3724 101.175 95.8491C100.644 96.3257 99.9234 96.5935 99.172 96.5935Z" fill="#952B95"/>
</svg>
