<svg width="127" height="122" viewBox="0 0 127 122" fill="none" xmlns="http://www.w3.org/2000/svg">
<g clip-path="url(#clip0_418_39)">
<path d="M63.4997 10.1667C92.7255 10.1667 116.416 32.9248 116.416 61.0001C116.416 89.0753 92.7255 111.833 63.4997 111.833C34.2738 111.833 10.583 89.0753 10.583 61.0001C10.583 32.9248 34.2738 10.1667 63.4997 10.1667ZM63.4997 30.5001C62.0962 30.5001 60.7503 31.0356 59.7579 31.989C58.7655 32.9423 58.208 34.2352 58.208 35.5834V61.0001C58.2083 62.3482 58.766 63.6409 59.7585 64.594L75.6335 79.844C76.6315 80.77 77.9682 81.2823 79.3556 81.2708C80.7431 81.2592 82.0703 80.7246 83.0514 79.7821C84.0325 78.8396 84.5891 77.5646 84.6011 76.2318C84.6132 74.8989 84.0798 73.6149 83.1159 72.6562L68.7913 58.8956V35.5834C68.7913 34.2352 68.2338 32.9423 67.2414 31.989C66.2491 31.0356 64.9031 30.5001 63.4997 30.5001Z" fill="#952B95"/>
</g>
<defs>
<clipPath id="clip0_418_39">
<rect width="127" height="122" fill="white"/>
</clipPath>
</defs>
</svg>
