<svg width="89" height="64" viewBox="0 0 89 64" fill="none" xmlns="http://www.w3.org/2000/svg">
<path d="M2.34211 2.102V0C1.72094 0 1.12522 0.22146 0.685987 0.615661C0.246757 1.00986 0 1.54451 0 2.102H2.34211ZM86.6579 2.102H89C89 1.54451 88.7532 1.00986 88.314 0.615661C87.8748 0.22146 87.2791 0 86.6579 0V2.102ZM2.34211 4.20399H86.6579V0H2.34211V4.20399ZM84.3158 2.102V52.5499H89V2.102H84.3158ZM77.2895 58.8559H11.7105V63.0599H77.2895V58.8559ZM4.68421 52.5499V2.102H0V52.5499H4.68421ZM11.7105 58.8559C9.84703 58.8559 8.05986 58.1915 6.74217 57.0089C5.42448 55.8263 4.68421 54.2223 4.68421 52.5499H0C0 55.3373 1.23378 58.0106 3.42993 59.9816C5.62608 61.9526 8.6047 63.0599 11.7105 63.0599V58.8559ZM84.3158 52.5499C84.3158 54.2223 83.5755 55.8263 82.2578 57.0089C80.9401 58.1915 79.153 58.8559 77.2895 58.8559V63.0599C80.3953 63.0599 83.3739 61.9526 85.5701 59.9816C87.7662 58.0106 89 55.3373 89 52.5499H84.3158Z" fill="white"/>
<path d="M4 1.94043L42 45.5973L80 1.94043" fill="white"/>
</svg>
