<svg width="80" height="79" viewBox="0 0 80 79" fill="none" xmlns="http://www.w3.org/2000/svg">
<path d="M23.2 0H56.8C69.6 0 80 10.27 80 22.91V56.09C80 62.1661 77.5557 67.9934 73.2049 72.2898C68.854 76.5863 62.953 79 56.8 79H23.2C10.4 79 0 68.73 0 56.09V22.91C0 16.8339 2.44428 11.0066 6.79512 6.71018C11.146 2.41373 17.047 0 23.2 0ZM22.4 7.9C18.5809 7.9 14.9182 9.39818 12.2177 12.0649C9.51714 14.7317 8 18.3486 8 22.12V56.88C8 64.7405 14.44 71.1 22.4 71.1H57.6C61.4191 71.1 65.0818 69.6018 67.7823 66.9351C70.4829 64.2683 72 60.6514 72 56.88V22.12C72 14.2595 65.56 7.9 57.6 7.9H22.4ZM61 13.825C62.3261 13.825 63.5979 14.3452 64.5355 15.2712C65.4732 16.1971 66 17.453 66 18.7625C66 20.072 65.4732 21.3279 64.5355 22.2538C63.5979 23.1798 62.3261 23.7 61 23.7C59.6739 23.7 58.4021 23.1798 57.4645 22.2538C56.5268 21.3279 56 20.072 56 18.7625C56 17.453 56.5268 16.1971 57.4645 15.2712C58.4021 14.3452 59.6739 13.825 61 13.825ZM40 19.75C45.3043 19.75 50.3914 21.8308 54.1421 25.5346C57.8929 29.2385 60 34.262 60 39.5C60 44.738 57.8929 49.7615 54.1421 53.4654C50.3914 57.1692 45.3043 59.25 40 59.25C34.6957 59.25 29.6086 57.1692 25.8579 53.4654C22.1071 49.7615 20 44.738 20 39.5C20 34.262 22.1071 29.2385 25.8579 25.5346C29.6086 21.8308 34.6957 19.75 40 19.75ZM40 27.65C36.8174 27.65 33.7652 28.8985 31.5147 31.1208C29.2643 33.3431 28 36.3572 28 39.5C28 42.6428 29.2643 45.6569 31.5147 47.8792C33.7652 50.1015 36.8174 51.35 40 51.35C43.1826 51.35 46.2348 50.1015 48.4853 47.8792C50.7357 45.6569 52 42.6428 52 39.5C52 36.3572 50.7357 33.3431 48.4853 31.1208C46.2348 28.8985 43.1826 27.65 40 27.65Z" fill="white"/>
</svg>
