<svg width="23" height="31" viewBox="0 0 23 31" fill="none" xmlns="http://www.w3.org/2000/svg">
<path d="M11.2812 30.3977C9.16004 30.3977 7.27557 30.0142 5.62784 29.2472C3.98011 28.4801 2.67803 27.4242 1.72159 26.0795C0.774621 24.7348 0.282197 23.1913 0.244318 21.4489H7.0625C7.11932 22.5189 7.55492 23.3807 8.36932 24.0341C9.18371 24.678 10.1544 25 11.2812 25C12.1619 25 12.9432 24.8059 13.625 24.4176C14.3068 24.0294 14.8419 23.4848 15.2301 22.7841C15.6184 22.0739 15.8078 21.2595 15.7983 20.3409C15.8078 19.4034 15.6136 18.5843 15.2159 17.8835C14.8277 17.1828 14.2879 16.6383 13.5966 16.25C12.9148 15.8523 12.1288 15.6534 11.2386 15.6534C10.3958 15.6439 9.59564 15.8286 8.83807 16.2074C8.08996 16.5862 7.52178 17.1023 7.13352 17.7557L0.926137 16.5909L2.19034 0.90909H20.8551V6.5767H7.97159L7.30398 13.4375H7.47443C7.95739 12.6326 8.7339 11.9697 9.80398 11.4489C10.8835 10.9186 12.1098 10.6534 13.483 10.6534C15.2254 10.6534 16.7784 11.0606 18.142 11.875C19.5152 12.6799 20.5947 13.7973 21.3807 15.2273C22.1761 16.6572 22.5739 18.2955 22.5739 20.142C22.5739 22.1402 22.1004 23.911 21.1534 25.4545C20.2159 26.9981 18.8996 28.2102 17.2045 29.0909C15.5189 29.9621 13.5445 30.3977 11.2812 30.3977Z" fill="#FFB800"/>
</svg>
