<svg width="91" height="71" viewBox="0 0 91 71" fill="none" xmlns="http://www.w3.org/2000/svg">
<path d="M36.4 50.7143L60.0145 35.5L36.4 20.2857V50.7143ZM88.998 11.005C89.5895 13.3886 89.999 16.5836 90.272 20.6407C90.5905 24.6979 90.727 28.1971 90.727 31.24L91 35.5C91 46.6064 90.272 54.7714 88.998 59.995C87.8605 64.5593 85.2215 67.5007 81.1265 68.7686C78.988 69.4279 75.075 69.8843 69.069 70.1886C63.154 70.5436 57.7395 70.6957 52.7345 70.6957L45.5 71C26.4355 71 14.56 70.1886 9.8735 68.7686C5.7785 67.5007 3.1395 64.5593 2.002 59.995C1.4105 57.6114 1.001 54.4164 0.728 50.3593C0.4095 46.3021 0.273 42.8029 0.273 39.76L0 35.5C0 24.3936 0.728 16.2286 2.002 11.005C3.1395 6.44072 5.7785 3.49929 9.8735 2.23143C12.012 1.57214 15.925 1.11571 21.931 0.811428C27.846 0.456428 33.2605 0.304285 38.2655 0.304285L45.5 0C64.5645 0 76.44 0.811429 81.1265 2.23143C85.2215 3.49929 87.8605 6.44072 88.998 11.005Z" fill="white"/>
</svg>
