<svg width="130" height="134" viewBox="0 0 130 134" fill="none" xmlns="http://www.w3.org/2000/svg">
<g clip-path="url(#clip0_424_2)">
<path d="M125.919 119.893L108.333 101.877V32.5695L100.027 16.8245C99.4146 15.6241 98.4954 14.619 97.3689 13.9178C96.2425 13.2167 94.9515 12.8461 93.6356 12.8461C92.3197 12.8461 91.0288 13.2167 89.9023 13.9178C88.7759 14.619 87.8566 15.6241 87.244 16.8245L79.444 32.6067V72.2484L13.3967 4.50392C12.8917 3.97898 12.2463 3.62098 11.5431 3.47555C10.8398 3.33012 10.1105 3.40387 9.44806 3.68738C8.78562 3.97089 8.2201 4.45132 7.8236 5.06742C7.42709 5.68352 7.21757 6.40738 7.22174 7.1467V37.2223H15.0579V43.1778H7.22174V67H15.0579V72.9556H7.22174V97.7084H15.0579V103.664H7.22174V122.536C7.22174 123.523 7.6022 124.47 8.27941 125.168C8.95663 125.866 9.87513 126.258 10.8329 126.258H123.355C124.072 126.262 124.775 126.046 125.372 125.637C125.97 125.229 126.436 124.646 126.711 123.963C126.986 123.28 127.058 122.528 126.917 121.803C126.776 121.079 126.428 120.413 125.919 119.893ZM36.1106 96.7778V63.0545L68.8634 96.7778H36.1106ZM101.111 104.632H86.6662V95.5867H101.111V104.632ZM101.111 89.7428H86.6662V34.4306L93.6717 20.3978L101.111 34.4678V89.7428Z" fill="#952B95"/>
</g>
<defs>
<clipPath id="clip0_424_2">
<rect width="130" height="134" fill="white"/>
</clipPath>
</defs>
</svg>
