<svg width="75" height="75" viewBox="0 0 75 75" fill="none" xmlns="http://www.w3.org/2000/svg">
<path d="M67.5 0H17.5988C16.0729 0.0053325 14.5846 0.497995 13.3304 1.41285C12.0763 2.32771 11.1155 3.62168 10.575 5.12368L0.236255 34.1408C0.0792781 34.584 -0.000743838 35.0533 5.21023e-06 35.5263V43.4211C5.21023e-06 47.775 3.36375 51.3158 7.5 51.3158H28.545L24.3375 64.6066C23.9624 65.7933 23.8599 67.0568 24.0385 68.2932C24.2171 69.5297 24.6717 70.704 25.365 71.7197C26.775 73.7724 29.0475 75 31.455 75H37.5C38.6138 75 39.6675 74.4789 40.3838 73.5789L58.0087 51.3158H67.5C71.6363 51.3158 75 47.775 75 43.4211V7.89474C75 3.54079 71.6363 0 67.5 0ZM35.7413 67.1053H31.4475L37.305 48.6158C37.4927 48.0227 37.5438 47.3911 37.4543 46.7732C37.3647 46.1552 37.137 45.5684 36.7899 45.0612C36.4428 44.554 35.9862 44.1408 35.4577 43.8556C34.9292 43.5705 34.3439 43.4215 33.75 43.4211H7.5V36.2408L17.5988 7.89474H52.5V45.9395L35.7413 67.1053ZM60 43.4211V7.89474H67.5L67.5038 43.4211H60Z" fill="#952B95"/>
</svg>
