<svg width="101" height="113" viewBox="0 0 101 113" fill="none" xmlns="http://www.w3.org/2000/svg">
<path fill-rule="evenodd" clip-rule="evenodd" d="M69.4384 0C70.2674 -1.73731e-08 71.0883 0.16238 71.8541 0.477868C72.62 0.793356 73.3159 1.25577 73.9021 1.83872C74.4883 2.42166 74.9533 3.11372 75.2705 3.87538C75.5877 4.63703 75.751 5.45337 75.751 6.27778C75.751 7.10219 75.5877 7.91852 75.2705 8.68018C74.9533 9.44183 74.4883 10.1339 73.9021 10.7168C73.3159 11.2998 72.62 11.7622 71.8541 12.0777C71.0883 12.3932 70.2674 12.5556 69.4384 12.5556H12.6252V94.1667C12.6252 95.8316 13.2902 97.4284 14.4741 98.6057C15.6579 99.783 17.2636 100.444 18.9378 100.444H69.4384C71.1126 100.444 72.7183 101.106 73.9021 102.283C75.0859 103.46 75.751 105.057 75.751 106.722C75.751 108.387 75.0859 109.984 73.9021 111.161C72.7183 112.339 71.1126 113 69.4384 113H18.9378C13.9151 113 9.09826 111.016 5.54674 107.484C1.99522 103.952 0 99.1616 0 94.1667V6.27778C0 4.61281 0.665075 3.01603 1.84891 1.83872C3.03275 0.661408 4.63838 0 6.31258 0H69.4384ZM80.214 33.2283C79.3316 32.351 78.2075 31.7534 76.9837 31.5111C75.76 31.2688 74.4914 31.3926 73.3384 31.8668C72.1853 32.3411 71.1995 33.1445 70.5053 34.1757C69.8112 35.2069 69.4399 36.4195 69.4384 37.6604V50.2159H31.5629C29.8887 50.2159 28.2831 50.8773 27.0993 52.0547C25.9154 53.232 25.2503 54.8288 25.2503 56.4937C25.2503 58.1587 25.9154 59.7555 27.0993 60.9328C28.2831 62.1101 29.8887 62.7715 31.5629 62.7715H69.4384V75.3271C69.4387 76.5685 69.8091 77.782 70.5027 78.8141C71.1964 79.8462 72.1822 80.6507 73.3355 81.1257C74.4888 81.6007 75.7578 81.7251 76.9822 81.4829C78.2065 81.2408 79.3312 80.6431 80.214 79.7654L99.1518 60.9321C100.335 59.7548 101 58.1584 101 56.4937C101 54.8291 100.335 53.2326 99.1518 52.0553L80.214 33.2283Z" fill="#F2F2F2"/>
</svg>
