<svg width="89" height="89" viewBox="0 0 89 89" fill="none" xmlns="http://www.w3.org/2000/svg">
<path d="M44.5 0C50.4011 0 56.0604 2.34419 60.2331 6.51687C64.4058 10.6896 66.75 16.3489 66.75 22.25C66.75 28.1511 64.4058 33.8104 60.2331 37.9831C56.0604 42.1558 50.4011 44.5 44.5 44.5C38.5989 44.5 32.9396 42.1558 28.7669 37.9831C24.5942 33.8104 22.25 28.1511 22.25 22.25C22.25 16.3489 24.5942 10.6896 28.7669 6.51687C32.9396 2.34419 38.5989 0 44.5 0ZM44.5 55.625C69.0863 55.625 89 65.5819 89 77.875V89H0V77.875C0 65.5819 19.9137 55.625 44.5 55.625Z" fill="#F2F2F2"/>
</svg>
