<svg width="126" height="131" viewBox="0 0 126 131" fill="none" xmlns="http://www.w3.org/2000/svg">
<path d="M63 30.0208C27.6727 30.0208 0 45.6043 0 65.4999C0 85.3955 27.6727 100.979 63 100.979C98.3273 100.979 126 85.3955 126 65.4999C126 45.6043 98.3273 30.0208 63 30.0208ZM56.4585 40.9374H63.336L61.152 51.8541H67.2945C71.19 51.8541 73.8045 52.4218 75.2955 53.8355C76.7498 55.2328 77.1908 57.5253 76.608 60.6475L73.878 73.6874H66.885L69.3997 61.63C69.7042 59.9761 69.5835 58.8244 69.048 58.2185C68.5178 57.6126 67.347 57.3124 65.5935 57.3124H60.0862L56.763 73.6874H49.875L56.4585 40.9374ZM26.25 51.8541H40.2465C46.9192 51.8541 50.9618 56.5046 49.3815 63.4421C47.544 71.5041 42.63 73.6874 33.579 73.6874H29.253L27.8827 81.8749H20.9265L26.25 51.8541ZM81.375 51.8541H95.3715C102.044 51.8541 106.087 56.5046 104.507 63.4421C102.669 71.5041 97.7497 73.6874 88.704 73.6874H84.378L83.0077 81.8749H76.0515L81.375 51.8541ZM32.2088 57.3124L30.2295 68.2291H34.7182C38.6032 68.2291 42.2153 67.7706 42.819 61.7446C43.0448 59.4139 42.1102 57.3124 37.6215 57.3124H32.2088ZM87.3338 57.3124L85.3545 68.2291H89.8433C93.7283 68.2291 97.3403 67.7706 97.944 61.7446C98.1698 59.4139 97.2405 57.3124 92.7465 57.3124H87.3338Z" fill="#952B95"/>
</svg>
