<svg width="189" height="195" viewBox="0 0 189 195" fill="none" xmlns="http://www.w3.org/2000/svg">
<g clip-path="url(#clip0_416_3)">
<mask id="mask0_416_3" style="mask-type:luminance" maskUnits="userSpaceOnUse" x="0" y="0" width="189" height="195">
<path d="M0 0H189V195H0V0Z" fill="white"/>
</mask>
<g mask="url(#mask0_416_3)">
<path d="M40.0049 0H48.5256V8.68562H56.3219V0H64.8426V26.2925H56.3219V17.4931H48.5256V26.2925H40.0128L40.0049 0ZM76.0409 8.71812H68.5439V0H92.0665V8.71812H84.5616V26.2925H76.0409V8.71812ZM95.7993 0H104.682L110.148 9.23812L115.605 0H124.488V26.2925H116.007V13.26L110.148 22.6119H109.998L104.131 13.2681V26.2925H95.7993V0ZM128.725 0H137.253V17.6069H149.223V26.3006H128.725V0Z" fill="#952B95"/>
<path fill-rule="evenodd" clip-rule="evenodd" d="M39.7373 179.335L23.625 38.3257H165.375L149.255 179.319L94.4212 195L39.7373 179.335ZM72.3161 102.148L70.7884 84.4351H134.93L136.426 67.1451H52.479L56.9992 119.446H115.093L113.148 141.871L94.4528 147.087H94.437L75.7732 141.887L74.5763 128.099H57.7395L60.0863 155.253L94.4212 165.084L128.811 155.253L133.001 106.795L133.41 102.156H72.3161V102.148Z" fill="#952B95"/>
</g>
</g>
<defs>
<clipPath id="clip0_416_3">
<rect width="189" height="195" fill="white"/>
</clipPath>
</defs>
</svg>
