<svg width="179" height="169" viewBox="0 0 179 169" fill="none" xmlns="http://www.w3.org/2000/svg">
<path fill-rule="evenodd" clip-rule="evenodd" d="M66.2291 84.9562L116.349 97.8594V47.4889L66.2291 60.3836V84.9562ZM48.3291 91.412C48.3287 93.2662 48.9743 95.069 50.1663 96.5425C51.3583 98.0161 53.0305 99.0786 54.9253 99.5663L122.945 117.075C124.272 117.416 125.665 117.464 127.015 117.215C128.365 116.966 129.636 116.427 130.729 115.639C131.823 114.851 132.709 113.836 133.319 112.672C133.93 111.508 134.248 110.227 134.249 108.929V36.411C134.249 35.1116 133.932 33.8297 133.322 32.6648C132.713 31.5 131.826 30.4837 130.733 29.6948C129.639 28.9059 128.368 28.3658 127.017 28.1164C125.666 27.8669 124.273 27.915 122.945 28.2567L54.9253 45.7736C53.0305 46.2612 51.3583 47.3237 50.1663 48.7973C48.9743 50.2708 48.3287 52.0736 48.3291 53.9278V91.412Z" fill="#952B95"/>
<path fill-rule="evenodd" clip-rule="evenodd" d="M44.8928 82.8099V62.5299H35.5221C33.6674 65.6237 32.6955 69.1193 32.7018 72.6744C32.7081 76.2294 33.6923 79.7219 35.5579 82.8099H44.8928ZM53.8428 99.7099C56.2165 99.7099 58.4929 98.8196 60.1714 97.2349C61.8498 95.6503 62.7928 93.501 62.7928 91.2599V54.0799C62.7928 51.8388 61.8498 49.6895 60.1714 48.1048C58.4929 46.5201 56.2165 45.6299 53.8428 45.6299H29.1139C28.4438 45.6293 27.7807 45.758 27.1651 46.0079C26.5495 46.2578 25.9945 46.6237 25.5339 47.0833C11.196 61.3722 11.2587 83.8661 25.516 98.2227C25.9803 98.6916 26.5415 99.0655 27.165 99.3213C27.7885 99.5771 28.461 99.7094 29.1408 99.7099H53.8428Z" fill="#952B95"/>
<path fill-rule="evenodd" clip-rule="evenodd" d="M57.4944 101.4H52.2676L45.4119 126.75H50.6297L57.4944 101.4ZM52.2676 84.4998C48.2898 84.4999 44.4253 85.7509 41.2844 88.0553C38.1434 90.3597 35.905 93.5863 34.9225 97.2255L25.2207 133.113C24.8837 134.361 24.8534 135.665 25.1321 136.926C25.4109 138.187 25.9913 139.371 26.829 140.388C27.6666 141.405 28.7394 142.227 29.9653 142.792C31.1913 143.358 32.5378 143.651 33.9022 143.65H50.6387C54.6137 143.648 58.4752 142.398 61.6142 140.095C64.7531 137.792 66.991 134.569 67.9748 130.933L74.8395 105.583C75.5147 103.087 75.5768 100.479 75.021 97.957C74.4652 95.4353 73.3063 93.0669 71.6328 91.0327C69.9593 88.9986 67.8154 87.3525 65.365 86.2202C62.9146 85.088 60.2225 84.4995 57.4944 84.4998H52.2676ZM170.336 37.56C170.988 38.4833 171.442 39.5188 171.67 40.6074C171.899 41.6961 171.898 42.8166 171.668 43.905C171.438 44.9933 170.983 46.0282 170.329 46.9505C169.675 47.8728 168.835 48.6644 167.857 49.2802L154.432 57.7302C152.457 58.974 150.04 59.4262 147.712 58.9872C145.384 58.5482 143.336 57.2541 142.018 55.3895C140.701 53.525 140.222 51.2427 140.687 49.0447C141.152 46.8468 142.522 44.9132 144.497 43.6694L157.922 35.2194C158.9 34.6034 159.997 34.1753 161.15 33.9595C162.303 33.7438 163.49 33.7446 164.643 33.962C165.795 34.1793 166.892 34.609 167.868 35.2263C168.845 35.8437 169.684 36.6367 170.336 37.56ZM140.515 72.6698C140.515 70.4287 141.458 68.2794 143.136 66.6947C144.814 65.1101 147.091 64.2198 149.465 64.2198H162.89C165.263 64.2198 167.54 65.1101 169.218 66.6947C170.897 68.2794 171.84 70.4287 171.84 72.6698C171.84 74.9109 170.897 77.0602 169.218 78.6449C167.54 80.2295 165.263 81.1198 162.89 81.1198H149.465C147.091 81.1198 144.814 80.2295 143.136 78.6449C141.458 77.0602 140.515 74.9109 140.515 72.6698ZM142.609 88.8008C143.365 87.9507 144.29 87.2495 145.333 86.7372C146.376 86.2249 147.515 85.9115 148.686 85.815C149.857 85.7185 151.037 85.8407 152.158 86.1747C153.279 86.5087 154.319 87.0479 155.219 87.7615L167.57 97.5635C169.324 99.0222 170.403 101.071 170.578 103.271C170.753 105.471 170.01 107.649 168.506 109.338C167.003 111.028 164.86 112.095 162.534 112.312C160.209 112.529 157.885 111.879 156.061 110.5L143.71 100.698C141.894 99.2578 140.758 97.1955 140.552 94.9647C140.345 92.7339 141.085 90.5169 142.609 88.8008Z" fill="#952B95"/>
</svg>
