<svg width="65" height="67" viewBox="0 0 65 67" fill="none" xmlns="http://www.w3.org/2000/svg">
<path d="M19.518 67C17.7289 67 16.1967 66.3434 14.9215 65.0302C13.6464 63.717 13.0099 62.1403 13.012 60.3C13.012 58.4575 13.6496 56.8796 14.9248 55.5664C16.2 54.2532 17.731 53.5978 19.518 53.6C21.3072 53.6 22.8394 54.2566 24.1145 55.5698C25.3897 56.883 26.0262 58.4597 26.024 60.3C26.024 62.1425 25.3865 63.7203 24.1113 65.0335C22.8361 66.3467 21.305 67.0022 19.518 67ZM52.0481 67C50.2589 67 48.7268 66.3434 47.4516 65.0302C46.1764 63.717 45.5399 62.1403 45.5421 60.3C45.5421 58.4575 46.1797 56.8796 47.4548 55.5664C48.73 54.2532 50.2611 53.5978 52.0481 53.6C53.8372 53.6 55.3694 54.2566 56.6446 55.5698C57.9198 56.883 58.5563 58.4597 58.5541 60.3C58.5541 62.1425 57.9165 63.7203 56.6413 65.0335C55.3662 66.3467 53.8351 67.0022 52.0481 67ZM16.753 13.4L24.5602 30.15H47.3312L56.277 13.4H16.753ZM13.6626 6.7H61.6445C62.8914 6.7 63.8402 7.27285 64.4908 8.41855C65.1414 9.56425 65.1685 10.7222 64.5722 11.8925L53.024 33.3325C52.4276 34.4492 51.6274 35.3146 50.6233 35.9287C49.6192 36.5429 48.5218 36.85 47.3312 36.85H23.0963L19.518 43.55H58.5541V50.25H19.518C17.0783 50.25 15.2349 49.1467 13.9879 46.9402C12.7409 44.7337 12.6867 42.5428 13.8253 40.3675L18.2168 32.16L6.50601 6.7H0V0H10.5723L13.6626 6.7Z" fill="#952B95"/>
</svg>
